<?xml version="1.0" encoding="UTF-8"?>
<!DOCTYPE svg PUBLIC "-//W3C//DTD SVG 1.1//EN" "http://www.w3.org/Graphics/SVG/1.1/DTD/svg11.dtd">
<!-- Creator: CorelDRAW 2019 (64 Bit) -->
<svg xmlns="http://www.w3.org/2000/svg" xml:space="preserve" width="374.867mm" height="287.556mm" version="1.1" style="shape-rendering:geometricPrecision; text-rendering:geometricPrecision; image-rendering:optimizeQuality; fill-rule:evenodd; clip-rule:evenodd"
viewBox="0 0 193165.17 148174.71"
 xmlns:xlink="http://www.w3.org/1999/xlink"
 xmlns:xodm="http://www.corel.com/coreldraw/odm/2003">
 <defs>
  <style type="text/css">
   <![CDATA[
    .str0 {stroke:#373435;stroke-width:103.06;stroke-miterlimit:22.9256}
    .fil0 {fill:white}
   ]]>
  </style>
 </defs>
 <g id="Camada_x0020_1">
  <metadata id="CorelCorpID_0Corel-Layer"/>
  <path class="fil0 str0" d="M148126.73 129612.94c0,-24617.4 -49325.75,-37017.07 -74037.55,-37017.07 -24708.3,0 -74037.6,12399.67 -74037.6,37017.07l0 18510.29 148075.15 0 0 -18510.29zm-129564.86 0c2035.7,-6663.31 30633.56,-18510.24 55527.31,-18510.24 24988.2,0 53677.01,11937.87 55527.31,18510.24l-111054.63 0z"/>
  <path class="fil0 str0" d="M74089.18 74085.58c20451.54,0 37017.02,-16565.48 37017.02,-37017.07 0,-20451.49 -16565.48,-37016.97 -37017.02,-37016.97 -20451.54,0 -37017.07,16565.48 -37017.07,37016.97 0,20451.59 16565.53,37017.07 37017.07,37017.07zm18510.29 -37017.07c0,10182.13 -8328.27,18510.29 -18510.29,18510.29 -10182.07,0 -18510.24,-8328.16 -18510.24,-18510.29 0,-10181.97 8328.16,-18510.24 18510.24,-18510.24 10178.57,0 18510.29,8328.27 18510.29,18510.24z"/>
  <polygon class="fil0 str0" points="193113.69,85401.34 193113.69,66891.05 165351.74,66891.05 165351.74,39129.09 146841.45,39129.09 146841.45,66894.5 119079.59,66891.05 119079.59,85401.34 146841.45,85401.34 146841.45,113166.75 165351.74,113163.29 165351.74,85401.34 "/>
 </g>
</svg>
