<?xml version="1.0" encoding="UTF-8"?>
<!DOCTYPE svg PUBLIC "-//W3C//DTD SVG 1.1//EN" "http://www.w3.org/Graphics/SVG/1.1/DTD/svg11.dtd">
<!-- Creator: CorelDRAW 2019 (64 Bit) -->
<svg xmlns="http://www.w3.org/2000/svg" xml:space="preserve" width="502.379mm" height="386.492mm" version="1.1" style="shape-rendering:geometricPrecision; text-rendering:geometricPrecision; image-rendering:optimizeQuality; fill-rule:evenodd; clip-rule:evenodd"
viewBox="0 0 50567.71 38902.89"
 xmlns:xlink="http://www.w3.org/1999/xlink"
 xmlns:xodm="http://www.corel.com/coreldraw/odm/2003">
 <defs>
  <style type="text/css">
   <![CDATA[
    .str0 {stroke:#373435;stroke-width:20.13;stroke-miterlimit:22.9256}
    .fil0 {fill:white}
   ]]>
  </style>
 </defs>
 <g id="Camada_x0020_1">
  <metadata id="CorelCorpID_0Corel-Layer"/>
  <path class="fil0 str0" d="M50557.65 1954.2l0 34945.87c0,1263.7 -850.57,1992.75 -2065.65,1992.75l-6877.4 0c-473.89,0 -923.47,-121.51 -1251.54,-461.74 -340.21,-340.21 -510.32,-789.8 -498.18,-1263.67 24.29,-935.62 826.28,-1688.99 1786.18,-1688.99l4921.12 0c267.3,0 486.03,-218.72 486.03,-486.02l0 -31094.07c0,-267.29 -218.73,-486.02 -486.03,-486.02l-4957.58 0c-643.99,0 -1239.39,-315.92 -1567.46,-947.77 -36.43,-72.9 -72.91,-145.8 -97.21,-230.87 -376.67,-1215.08 546.81,-2223.61 1701.13,-2223.61l6840.95 0c1215.08,0 2065.65,729.04 2065.65,1944.14zm-7351.28 9465.53l0.03 16063.42c0,923.46 -765.5,1688.97 -1701.12,1688.97 -935.6,0 -1701.13,-765.5 -1701.13,-1701.11l-0.02 -16051.27c0,-923.47 765.5,-1688.98 1701.13,-1688.98 935.6,0 1701.11,753.36 1701.11,1688.98zm-7655.03 -3827.54l0 23706.36c0,959.94 -765.5,1749.74 -1701.1,1749.74 -935.63,0 -1701.13,-777.66 -1701.13,-1749.74l0 -23706.34c0,-959.93 765.5,-1749.74 1701.13,-1749.74 935.6,-0.03 1701.1,789.81 1701.1,1749.72zm-8566.35 1919.84l0 19866.64c0,947.76 -765.51,1725.42 -1701.12,1725.42 -935.6,0 -1701.12,-777.66 -1701.12,-1725.42l0 -19866.64c0,-947.77 765.52,-1725.41 1701.12,-1725.41 935.61,0 1701.12,777.64 1701.12,1725.41zm-8566.36 -1919.84l0 23706.36c0,959.94 -765.51,1749.74 -1701.11,1749.74 -935.62,0 -1701.12,-777.66 -1701.12,-1749.74l0 -23706.34c0,-959.93 765.5,-1749.74 1701.12,-1749.74 947.76,-0.03 1701.11,789.81 1701.11,1749.72zm-14423.07 27898.38l4957.57 0c473.89,0 923.48,255.19 1251.54,595.4 340.22,340.22 510.33,777.65 498.17,1251.54 -24.29,923.45 -826.27,1555.3 -1786.17,1555.3l-6840.95 0c-1215.09,0 -2065.65,-729.04 -2065.65,-1944.13l0 -34994.49c0,-1215.09 972.06,-1944.14 2187.15,-1944.14l6561.48 0c473.88,0 1117.9,145.81 1445.96,486.02 340.22,340.25 510.33,741.23 498.17,1215.11 -24.29,923.45 -826.27,1701.11 -1786.17,1701.11l-4921.11 0c-267.32,0 -486.05,218.73 -486.05,486.02l0 31106.22c0,267.29 218.73,486.02 486.05,486.02zm6768.02 -24070.83l0.02 16051.27c0,923.46 -765.5,1688.98 -1701.11,1688.98 -935.61,0 -1701.13,-753.36 -1701.13,-1688.98l-0.02 -16051.27c0,-923.47 765.52,-1688.98 1701.12,-1688.98 935.61,0 1701.12,765.5 1701.12,1688.98z"/>
 </g>
</svg>
