<?xml version="1.0" encoding="UTF-8" standalone="no"?> <svg width="64" height="64" viewBox="0 0 64 64" fill="none" xmlns="http://www.w3.org/2000/svg">
<path d="M49 38C46.8244 38 44.6977 38.6451 42.8887 39.8538C41.0798 41.0625 39.6699 42.7805 38.8373 44.7905C38.0048 46.8005 37.7869 49.0122 38.2114 51.146C38.6358 53.2798 39.6835 55.2398 41.2218 56.7782C42.7602 58.3166 44.7202 59.3642 46.854 59.7886C48.9878 60.2131 51.1995 59.9952 53.2095 59.1627C55.2195 58.3301 56.9375 56.9202 58.1462 55.1113C59.3549 53.3023 60 51.1756 60 49C59.9982 46.0832 58.8386 43.2864 56.7761 41.2239C54.7136 39.1614 51.9168 38.0019 49 38V38ZM55 52H52V55C52 55.7956 51.6839 56.5587 51.1213 57.1213C50.5587 57.6839 49.7957 58 49 58C48.2044 58 47.4413 57.6839 46.8787 57.1213C46.3161 56.5587 46 55.7956 46 55V52H43C42.2044 52 41.4413 51.6839 40.8787 51.1213C40.3161 50.5587 40 49.7956 40 49C40.0045 48.2057 40.322 47.4453 40.8836 46.8836C41.4453 46.322 42.2057 46.0045 43 46H46V43C46 42.2044 46.3161 41.4413 46.8787 40.8787C47.4413 40.3161 48.2044 40 49 40C49.7946 40.0034 50.5557 40.3206 51.1175 40.8825C51.6794 41.4443 51.9966 42.2054 52 43V46H55C55.7957 46 56.5587 46.3161 57.1213 46.8787C57.6839 47.4413 58 48.2044 58 49C58 49.7956 57.6839 50.5587 57.1213 51.1213C56.5587 51.6839 55.7957 52 55 52Z" fill="black"/>
<path d="M50.41 22H53.24L36.53 5.30001C36.4387 5.2051 36.3292 5.12959 36.2081 5.07801C36.0869 5.02643 35.9566 4.99985 35.825 4.99985C35.6933 4.99985 35.563 5.02643 35.4418 5.07801C35.3207 5.12959 35.2112 5.2051 35.12 5.30001C35.0273 5.39154 34.9538 5.50054 34.9036 5.6207C34.8534 5.74086 34.8275 5.86979 34.8275 6.00001C34.8275 6.13024 34.8534 6.25917 34.9036 6.37933C34.9538 6.49949 35.0273 6.60849 35.12 6.70001L50.41 22Z" fill="black"/>
<path d="M6 28H58C58.5304 28 59.0391 27.7893 59.4142 27.4142C59.7893 27.0391 60 26.5304 60 26C60 25.4696 59.7893 24.9609 59.4142 24.5858C59.0391 24.2107 58.5304 24 58 24H6C5.46957 24 4.96086 24.2107 4.58579 24.5858C4.21071 24.9609 4 25.4696 4 26C4 26.5304 4.21071 27.0391 4.58579 27.4142C4.96086 27.7893 5.46957 28 6 28V28Z" fill="black"/>
<path d="M55 48H51C50.7348 48 50.4804 47.8946 50.2929 47.7071C50.1054 47.5196 50 47.2652 50 47V43C50.001 42.871 49.9761 42.7431 49.9268 42.6239C49.8775 42.5047 49.8048 42.3966 49.713 42.306C49.6214 42.209 49.5109 42.1317 49.3882 42.0791C49.2656 42.0265 49.1335 41.9996 49 42C48.7348 42 48.4804 42.1054 48.2929 42.2929C48.1054 42.4804 48 42.7348 48 43V47C48 47.2652 47.8946 47.5196 47.7071 47.7071C47.5196 47.8946 47.2652 48 47 48H43C42.871 47.9986 42.7431 48.0233 42.6239 48.0728C42.5048 48.1223 42.397 48.1955 42.307 48.288C42.2099 48.3794 42.1325 48.4897 42.0797 48.6122C42.0269 48.7346 41.9998 48.8666 42 49C42 49.2652 42.1054 49.5196 42.2929 49.7071C42.4804 49.8946 42.7348 50 43 50H47C47.2652 50 47.5196 50.1054 47.7071 50.2929C47.8946 50.4804 48 50.7348 48 51V55C48 55.2652 48.1054 55.5196 48.2929 55.7071C48.4804 55.8946 48.7348 56 49 56C49.2652 56 49.5196 55.8946 49.7071 55.7071C49.8946 55.5196 50 55.2652 50 55V51C50 50.7348 50.1054 50.4804 50.2929 50.2929C50.4804 50.1054 50.7348 50 51 50H55C55.2652 50 55.5196 49.8946 55.7071 49.7071C55.8946 49.5196 56 49.2652 56 49C56 48.7348 55.8946 48.4804 55.7071 48.2929C55.5196 48.1054 55.2652 48 55 48Z" fill="black"/>
<path d="M27.47 5.29002L10.76 22H13.59L28.88 6.70002C28.9726 6.6085 29.0462 6.4995 29.0964 6.37934C29.1466 6.25918 29.1724 6.13025 29.1724 6.00002C29.1724 5.8698 29.1466 5.74087 29.0964 5.62071C29.0462 5.50055 28.9726 5.39155 28.88 5.30002C28.7888 5.20368 28.6786 5.12727 28.5564 5.07564C28.4342 5.024 28.3027 4.99826 28.17 5.00002C28.04 4.9997 27.9111 5.02517 27.791 5.07495C27.6708 5.12472 27.5617 5.19783 27.47 5.29002V5.29002Z" fill="black"/>
<path d="M15.23 56H38.06C36.5684 53.6833 35.8553 50.9511 36.0243 48.201C36.1934 45.4509 37.2359 42.8265 39 40.71V35C39 34.7348 39.1053 34.4804 39.2929 34.2929C39.4804 34.1054 39.7348 34 40 34C40.2652 34 40.5196 34.1054 40.7071 34.2929C40.8946 34.4804 41 34.7348 41 35V38.77C42.7445 37.4041 44.8104 36.5089 47 36.17V35C47 34.7348 47.1053 34.4804 47.2929 34.2929C47.4804 34.1054 47.7348 34 48 34C48.2652 34 48.5196 34.1054 48.7071 34.2929C48.8946 34.4804 49 34.7348 49 35V36C51.1469 35.9981 53.2605 36.5308 55.15 37.55L56.76 30H7.23999L12.3 53.63C12.448 54.2984 12.8184 54.8967 13.3507 55.3272C13.8829 55.7577 14.5455 55.9949 15.23 56V56ZM31 35C31 34.7348 31.1053 34.4804 31.2929 34.2929C31.4804 34.1054 31.7348 34 32 34C32.2652 34 32.5196 34.1054 32.7071 34.2929C32.8946 34.4804 33 34.7348 33 35V51C33 51.2652 32.8946 51.5196 32.7071 51.7071C32.5196 51.8946 32.2652 52 32 52C31.7348 52 31.4804 51.8946 31.2929 51.7071C31.1053 51.5196 31 51.2652 31 51V35ZM23 35C23 34.7348 23.1053 34.4804 23.2929 34.2929C23.4804 34.1054 23.7348 34 24 34C24.2652 34 24.5196 34.1054 24.7071 34.2929C24.8946 34.4804 25 34.7348 25 35V51C25 51.2652 24.8946 51.5196 24.7071 51.7071C24.5196 51.8946 24.2652 52 24 52C23.7348 52 23.4804 51.8946 23.2929 51.7071C23.1053 51.5196 23 51.2652 23 51V35ZM15 35C15 34.7348 15.1053 34.4804 15.2929 34.2929C15.4804 34.1054 15.7348 34 16 34C16.2652 34 16.5196 34.1054 16.7071 34.2929C16.8946 34.4804 17 34.7348 17 35V51C17 51.2652 16.8946 51.5196 16.7071 51.7071C16.5196 51.8946 16.2652 52 16 52C15.7348 52 15.4804 51.8946 15.2929 51.7071C15.1053 51.5196 15 51.2652 15 51V35Z" fill="black"/>
</svg>
