<?xml version="1.0" encoding="UTF-8"?>
<!DOCTYPE svg PUBLIC "-//W3C//DTD SVG 1.1//EN" "http://www.w3.org/Graphics/SVG/1.1/DTD/svg11.dtd">
<!-- Creator: CorelDRAW 2019 (64 Bit) -->
<svg xmlns="http://www.w3.org/2000/svg" xml:space="preserve" width="681.875mm" height="669.705mm" version="1.1" style="shape-rendering:geometricPrecision; text-rendering:geometricPrecision; image-rendering:optimizeQuality; fill-rule:evenodd; clip-rule:evenodd"
viewBox="0 0 69174.71 67940.06"
 xmlns:xlink="http://www.w3.org/1999/xlink"
 xmlns:xodm="http://www.corel.com/coreldraw/odm/2003">
 <defs>
  <style type="text/css">
   <![CDATA[
    .str0 {stroke:#373435;stroke-width:20.29;stroke-miterlimit:22.9256}
    .fil1 {fill:white}
    .fil0 {fill:black;fill-rule:nonzero}
   ]]>
  </style>
 </defs>
 <g id="Camada_x0020_1">
  <metadata id="CorelCorpID_0Corel-Layer"/>
  <g id="compras.svg">
   <path class="fil0" d="M55580.67 40762.27c-2686.54,0 -5312.86,796.72 -7546.65,2289.34 -2233.81,1492.62 -3975.2,3613.93 -5003.41,6096.51 -1027.76,2482.1 -1297.06,5212.97 -772.92,7848.16 524.15,2635.2 1817.94,5055.69 3717.55,6955.31 1900.09,1899.62 4320.58,3193.41 6955.31,3717.55 2635.19,524.14 5366.52,255.3 7848.63,-772.91 2482.1,-1028.22 4603.41,-2769.15 6096.03,-5002.94 1493.09,-2234.27 2289.34,-4860.59 2289.34,-7547.12 -1.87,-3601.81 -1434.28,-7055.65 -3981.25,-9602.63 -2546.98,-2546.98 -6000.36,-3978.92 -9602.62,-3981.25l0 0zm7409.43 17288.83l-3704.48 0 0 3704.48c0,982.48 -390.65,1924.83 -1085.16,2619.8 -694.97,694.5 -1637.32,1085.16 -2619.79,1085.16 -982.48,0 -1924.83,-390.65 -2619.33,-1085.16 -694.97,-694.97 -1085.16,-1637.32 -1085.16,-2619.8l0 -3704.48 -3704.95 0c-982.48,0 -1924.82,-390.65 -2619.33,-1085.16 -694.97,-694.97 -1085.16,-1637.32 -1085.16,-2619.79 5.6,-980.61 397.65,-1919.68 1091.22,-2613.26 693.58,-693.57 1632.65,-1085.62 2613.26,-1091.22l3704.95 0 0 -3704.95c0,-982.48 390.19,-1924.82 1085.16,-2619.33 694.5,-694.97 1636.85,-1085.16 2619.33,-1085.16 981.54,4.2 1921.08,395.79 2615.12,1089.83 693.57,693.57 1085.62,1633.57 1089.82,2614.65l0 3704.95 3704.48 0c982.48,0 1924.82,390.19 2619.8,1085.16 694.5,694.5 1085.16,1636.85 1085.16,2619.33 0,982.47 -390.65,1924.82 -1085.16,2619.79 -694.98,694.5 -1637.32,1085.16 -2619.8,1085.16z"/>
   <path class="fil0" d="M57322.06 21003.93l3494.91 0 -20635.33 -20623.19c-112.95,-117.15 -248.3,-210.49 -397.66,-273.97 -149.82,-63.94 -310.38,-96.62 -473.27,-96.62 -162.42,0 -323.45,32.68 -473.26,96.62 -149.36,63.48 -284.71,156.82 -397.2,273.97 -114.34,112.95 -205.36,247.84 -267.44,396.25 -61.61,148.43 -93.81,307.58 -93.81,468.14 0,161.03 32.2,320.18 93.81,468.61 62.08,148.42 153.09,282.84 267.44,395.79l18881.81 18894.4z"/>
   <path class="fil0" d="M2479.65 28413.36l64215.41 0c654.83,0 1283.06,-260.44 1746.06,-723.43 463.47,-463.47 723.44,-1091.7 723.44,-1746.53 0,-654.82 -259.97,-1283.05 -723.44,-1746.52 -463,-463 -1091.22,-723.44 -1746.06,-723.44l-64215.41 0c-654.83,0 -1283.06,260.45 -1746.06,723.44 -463.47,463.47 -723.44,1091.7 -723.44,1746.52 0,654.83 259.97,1283.06 723.44,1746.53 463,463 1091.22,723.43 1746.06,723.43l0 0z"/>
   <path class="fil0" d="M62990.1 53111.17l-4939.47 0c-327.65,0 -641.76,-130.22 -873.26,-361.72 -231.49,-231.5 -361.71,-545.62 -361.71,-872.8l0 -4939.94c1.4,-159.16 -29.41,-317.38 -90.55,-464.41 -60.68,-147.02 -150.28,-280.5 -263.7,-392.52 -113.42,-119.95 -249.7,-215.17 -401.4,-280.05 -151.22,-65.34 -314.58,-98.48 -479.33,-98.01 -327.66,0 -641.77,130.22 -873.27,361.72 -231.49,231.49 -361.71,545.61 -361.71,873.26l0 4939.94c0,327.18 -130.23,641.29 -361.72,872.8 -231.5,231.5 -545.62,361.72 -872.8,361.72l-4939.94 0c-159.16,-1.4 -317.38,28.93 -464.41,90.08 -147.02,61.14 -280.04,151.69 -391.12,265.57 -119.95,112.95 -215.64,249.24 -280.98,400.46 -64.88,151.22 -98.48,314.11 -98.48,478.87 0,327.65 130.22,641.76 361.72,873.26 231.49,231.49 545.61,361.72 873.26,361.72l4939.94 0c327.18,0 641.29,130.22 872.8,361.71 231.49,231.5 361.72,545.62 361.72,873.27l0 4939.46c0,327.66 130.22,641.77 361.71,873.27 231.5,231.49 545.62,361.71 873.27,361.71 327.65,0 641.76,-130.22 873.26,-361.71 231.49,-231.5 361.72,-545.62 361.72,-873.27l0 -4939.46c0,-327.66 130.22,-641.77 361.71,-873.27 231.5,-231.49 545.62,-361.71 873.26,-361.71l4939.47 0c327.66,0 641.77,-130.23 873.26,-361.72 231.5,-231.5 361.72,-545.62 361.72,-873.26 0,-327.66 -130.22,-641.77 -361.72,-873.27 -231.49,-231.49 -545.61,-361.71 -873.26,-361.71z"/>
   <path class="fil0" d="M28993.06 368.6l-20635.34 20635.33 3494.91 0 18881.81 -18894.4c114.35,-112.95 205.36,-247.37 267.44,-395.79 61.61,-148.43 93.82,-307.58 93.82,-468.61 0,-160.56 -32.21,-319.71 -93.82,-468.14 -62.08,-148.42 -153.08,-283.3 -267.44,-396.25 -112.49,-119.02 -248.77,-213.29 -399.53,-276.77 -151.22,-63.95 -313.18,-95.69 -477.46,-93.35 -160.56,-0.47 -319.72,30.81 -467.67,92.42 -148.42,61.13 -283.31,151.68 -396.72,265.57l0 0z"/>
   <path class="fil0" d="M13877.8 62990.57l28193.19 0c-1842.21,-2861.09 -2722.94,-6235.12 -2513.84,-9631.09 208.64,-3395.97 1495.9,-6636.99 3674.62,-9250.71l0 -7050.98c0,-327.65 129.75,-641.76 361.72,-873.26 231.49,-231.5 545.62,-361.72 873.26,-361.72 327.18,0 641.29,130.22 873.26,361.72 231.5,231.5 361.72,545.62 361.72,873.26l0 4655.22c2153.99,-1686.78 4705.17,-2792.01 7409.44,-3210.68l0 -1444.54c0,-327.65 129.75,-641.76 361.25,-873.26 231.97,-231.5 546.08,-361.72 873.27,-361.72 327.65,0 641.76,130.22 873.26,361.72 231.49,231.5 361.72,545.62 361.72,873.26l0 1234.52c2651.52,-2.33 5261.51,655.77 7594.72,1914.08l1988.3 -9323.52 -61152.69 0 6248.66 29180.8c182.96,825.65 640.36,1564.5 1297.53,2096.11 657.16,531.62 1475.35,824.72 2320.61,830.79l0 0zm19474.56 -25932.78c0,-327.65 130.22,-641.76 361.72,-873.26 231.5,-231.5 545.62,-361.72 873.26,-361.72 327.65,0 641.76,130.22 873.26,361.72 231.5,231.5 361.72,545.62 361.72,873.26l0 19758.34c0,327.65 -130.22,641.76 -361.72,873.26 -231.5,231.49 -545.62,361.71 -873.26,361.71 -327.65,0 -641.76,-130.22 -873.26,-361.71 -231.5,-231.5 -361.72,-545.62 -361.72,-873.26l0 -19758.34zm-9879.4 0c0,-327.65 130.22,-641.76 361.72,-873.26 231.97,-231.5 546.08,-361.72 873.26,-361.72 327.66,0 641.77,130.22 873.26,361.72 231.5,231.5 361.72,545.62 361.72,873.26l0 19758.34c0,327.65 -130.22,641.76 -361.72,873.26 -231.49,231.49 -545.61,361.71 -873.26,361.71 -327.18,0 -641.29,-130.22 -873.26,-361.71 -231.5,-231.5 -361.72,-545.62 -361.72,-873.26l0 -19758.34zm-9878.93 0c0,-327.65 129.75,-641.76 361.71,-873.26 231.5,-231.5 545.62,-361.72 873.27,-361.72 327.18,0 641.29,130.22 873.26,361.72 231.49,231.5 361.26,545.62 361.26,873.26l0 19758.34c0,327.65 -129.76,641.76 -361.26,873.26 -231.97,231.49 -546.08,361.71 -873.26,361.71 -327.66,0 -641.77,-130.22 -873.27,-361.71 -231.96,-231.5 -361.71,-545.62 -361.71,-873.26l0 -19758.34z"/>
  </g>
  <path class="fil1 str0" d="M13594.03 56816.11l0 -19758.34c0,-327.64 129.75,-641.74 361.71,-873.26 231.51,-231.48 545.62,-361.7 873.26,-361.7 327.18,0 641.31,130.22 873.27,361.7 231.49,231.52 361.27,545.63 361.27,873.26l0 19758.34c0,327.66 -129.77,641.77 -361.27,873.27 -231.96,231.49 -546.09,361.71 -873.27,361.71 -327.65,0 -641.75,-130.22 -873.26,-361.71 -231.96,-231.5 -361.71,-545.62 -361.71,-873.27zm283.77 6174.45l28193.2 0c-1842.21,-2861.08 -2722.95,-6235.13 -2513.84,-9631.1 208.63,-3395.95 1495.87,-6636.98 3674.6,-9250.69l0 -7051c0,-327.64 129.75,-641.74 361.73,-873.26 231.48,-231.48 545.62,-361.7 873.25,-361.7 327.19,0 641.31,130.22 873.26,361.7 231.5,231.52 361.73,545.63 361.73,873.26l0 4655.23c2153.99,-1686.77 4705.18,-2792.02 7409.44,-3210.66l0 -1444.57c0,-327.64 129.75,-641.74 361.25,-873.26 231.97,-231.48 546.09,-361.7 873.26,-361.7 327.67,0 641.76,130.22 873.27,361.7 231.49,231.52 361.7,545.63 361.7,873.26l0 1234.53c2651.54,-2.34 5261.52,655.77 7594.73,1914.08l1988.31 -9323.51 -61152.7 0 6248.65 29180.79c182.97,825.65 640.38,1564.5 1297.55,2096.1 657.16,531.63 1475.33,824.73 2320.61,830.8zm9595.16 -6174.45l0 -19758.34c0,-327.64 130.23,-641.74 361.72,-873.26 231.96,-231.48 546.09,-361.7 873.27,-361.7 327.65,0 641.76,130.22 873.25,361.7 231.5,231.52 361.72,545.63 361.72,873.26l0 19758.34c0,327.66 -130.22,641.77 -361.72,873.27 -231.49,231.49 -545.61,361.71 -873.25,361.71 -327.18,0 -641.31,-130.22 -873.27,-361.71 -231.49,-231.5 -361.72,-545.62 -361.72,-873.27zm9879.4 -19758.34c0,-327.64 130.23,-641.74 361.71,-873.26 231.51,-231.48 545.63,-361.7 873.27,-361.7 327.67,0 641.75,130.22 873.27,361.7 231.49,231.52 361.7,545.63 361.7,873.26l0 19758.34c0,327.66 -130.21,641.77 -361.7,873.27 -231.52,231.49 -545.61,361.71 -873.27,361.71 -327.65,0 -641.76,-130.22 -873.27,-361.71 -231.48,-231.5 -361.71,-545.62 -361.71,-873.27l0 -19758.34z"/>
  <path class="fil1 str0" d="M48034.01 43051.61c-2233.8,1492.64 -3975.19,3613.93 -5003.4,6096.49 -1027.76,2482.12 -1297.05,5212.98 -772.92,7848.18 524.15,2635.21 1817.94,5055.68 3717.55,6955.3 1900.08,1899.62 4320.58,3193.41 6955.31,3717.56 2635.2,524.15 5366.54,255.29 7848.62,-772.91 2482.11,-1028.22 4603.42,-2769.15 6096.03,-5002.94 1493.09,-2234.26 2289.36,-4860.58 2289.36,-7547.12 -1.88,-3601.81 -1434.28,-7055.65 -3981.26,-9602.63 -2546.99,-2546.98 -6000.35,-3978.92 -9602.64,-3981.26 -2686.52,0 -5312.85,796.72 -7546.64,2289.35zm3842.17 7590.05l0 -3704.94c0,-982.48 390.2,-1924.82 1085.18,-2619.33 694.49,-694.98 1636.83,-1085.17 2619.3,-1085.17 981.57,4.2 1921.09,395.81 2615.14,1089.83 693.56,693.58 1085.63,1633.58 1089.83,2614.66l0 3704.94 3704.46 0c982.5,0 1924.82,390.21 2619.8,1085.17 694.52,694.51 1085.18,1636.84 1085.18,2619.33 0,982.47 -390.65,1924.82 -1085.18,2619.79 -694.98,694.5 -1637.3,1085.16 -2619.8,1085.16l-3704.46 0 0 3704.48c0,982.49 -390.65,1924.83 -1085.18,2619.79 -694.96,694.5 -1637.28,1085.17 -2619.8,1085.17 -982.47,0 -1924.81,-390.66 -2619.3,-1085.17 -694.98,-694.96 -1085.18,-1637.3 -1085.18,-2619.79l0 -3704.48 -3704.94 0c-982.47,0 -1924.81,-390.65 -2619.32,-1085.16 -694.98,-694.97 -1085.18,-1637.32 -1085.18,-2619.79 5.6,-980.6 397.66,-1919.69 1091.23,-2613.26 693.59,-693.57 1632.66,-1085.62 2613.26,-1091.23l3704.94 0z"/>
  <path class="fil1 str0" d="M54345.68 46936.72l0 4939.94c0,327.19 -130.22,641.29 -361.71,872.79 -231.52,231.51 -545.61,361.73 -872.8,361.73l-4939.94 0c-159.16,-1.39 -317.38,28.94 -464.4,90.08 -147.04,61.14 -280.06,151.69 -391.14,265.57 -119.95,112.95 -215.62,249.25 -280.97,400.47 -64.87,151.22 -98.48,314.09 -98.48,478.86 0,327.64 130.22,641.77 361.73,873.25 231.48,231.51 545.6,361.74 873.25,361.74l4939.94 0c327.19,0 641.27,130.22 872.8,361.7 231.49,231.51 361.71,545.63 361.71,873.26l0 4939.47c0,327.65 130.22,641.76 361.72,873.26 231.5,231.5 545.62,361.72 873.25,361.72 327.68,0 641.77,-130.22 873.29,-361.72 231.48,-231.5 361.7,-545.62 361.7,-873.26l0 -4939.47c0,-327.64 130.22,-641.75 361.72,-873.26 231.5,-231.48 545.61,-361.7 873.26,-361.7l4939.46 0c327.67,0 641.77,-130.23 873.29,-361.74 231.48,-231.48 361.7,-545.62 361.7,-873.25 0,-327.65 -130.22,-641.77 -361.7,-873.26 -231.52,-231.5 -545.63,-361.72 -873.29,-361.72l-4939.46 0c-327.66,0 -641.76,-130.22 -873.26,-361.73 -231.5,-231.49 -361.72,-545.6 -361.72,-872.79l0 -4939.94c1.42,-159.16 -29.4,-317.37 -90.54,-464.41 -60.68,-147.02 -150.29,-280.51 -263.7,-392.53 -113.42,-119.94 -249.71,-215.15 -401.4,-280.04 -151.23,-65.33 -314.58,-98.48 -479.35,-98.01 -327.64,0 -641.75,130.22 -873.25,361.71 -231.5,231.5 -361.72,545.62 -361.72,873.27z"/>
  <path class="fil1 str0" d="M2479.66 28413.35l64215.41 0c654.82,0 1283.04,-260.44 1746.06,-723.42 463.46,-463.48 723.44,-1091.71 723.44,-1746.53 0,-654.82 -259.98,-1283.04 -723.44,-1746.53 -463.02,-463 -1091.23,-723.44 -1746.06,-723.44l-64215.41 0c-654.83,0 -1283.07,260.45 -1746.07,723.44 -463.46,463.49 -723.44,1091.71 -723.44,1746.53 0,654.82 259.98,1283.05 723.44,1746.53 463,462.99 1091.23,723.42 1746.07,723.42z"/>
  <path class="fil1 str0" d="M38440.25 2109.51l18881.81 18894.41 3494.92 0 -20635.35 -20623.19c-112.95,-117.15 -248.3,-210.49 -397.65,-273.98 -149.82,-63.93 -310.38,-96.61 -473.27,-96.61 -162.43,0 -323.44,32.68 -473.26,96.61 -149.37,63.49 -284.71,156.83 -397.2,273.98 -114.35,112.94 -205.36,247.83 -267.44,396.24 -61.62,148.43 -93.81,307.59 -93.81,468.15 0,161.01 32.19,320.18 93.81,468.6 62.08,148.43 153.08,282.84 267.44,395.79z"/>
  <path class="fil1 str0" d="M11852.65 21003.93l18881.79 -18894.41c114.34,-112.95 205.38,-247.36 267.44,-395.79 61.62,-148.42 93.82,-307.59 93.82,-468.6 0,-160.56 -32.2,-319.72 -93.82,-468.15 -62.06,-148.42 -153.09,-283.3 -267.44,-396.24 -112.49,-119.03 -248.77,-213.28 -399.53,-276.77 -151.22,-63.93 -313.18,-95.69 -477.46,-93.35 -160.56,-0.47 -319.71,30.81 -467.68,92.41 -148.42,61.14 -283.3,151.69 -396.71,265.58l-20635.34 20635.33 3494.93 0z"/>
 </g>
</svg>
