<?xml version="1.0" encoding="UTF-8" standalone="no"?> <svg id="Layer_1" data-name="Layer 1" xmlns="http://www.w3.org/2000/svg" viewBox="0 0 128 128"><defs><style>.cls-1{fill:#2d3e50;}.cls-2{fill:#2e79bd;}</style></defs><title>n</title><path class="cls-1" d="M96.56589,1.3572H31.434a6.78758,6.78758,0,0,0-6.78922,6.78922V51.47531q0,12.52228.98967,25.00978l3.46392,43.90285a6.79074,6.79074,0,0,0,6.7695,6.25486H92.132a6.79082,6.79082,0,0,0,6.76958-6.25486l3.46392-43.90285q.98725-12.4776.98975-25.00978V8.14643A6.78767,6.78767,0,0,0,96.56589,1.3572ZM49.64437,110.72357a.89326.89326,0,0,1-.89073.89066H38.58953a.89326.89326,0,0,1-.89073-.89066V100.5593a.89326.89326,0,0,1,.89073-.89066H48.75364a.89326.89326,0,0,1,.89073.89066Zm0-20.32838a.89349.89349,0,0,1-.89073.89081H38.58953a.89349.89349,0,0,1-.89073-.89081V80.23108a.89339.89339,0,0,1,.89073-.89081H48.75364a.89339.89339,0,0,1,.89073.89081Zm0-20.32838a.89326.89326,0,0,1-.89073.89066H38.58953a.89326.89326,0,0,1-.89073-.89066V59.90255a.89336.89336,0,0,1,.89073-.89066H48.75364a.89336.89336,0,0,1,.89073.89066Zm20.32838,40.65676a.89326.89326,0,0,1-.89073.89066H58.91783a.89331.89331,0,0,1-.89073-.89066V100.5593a.89331.89331,0,0,1,.89073-.89066H69.082a.89326.89326,0,0,1,.89073.89066Zm0-20.32838a.89349.89349,0,0,1-.89073.89081H58.91783a.89355.89355,0,0,1-.89073-.89081V80.23108a.89344.89344,0,0,1,.89073-.89081H69.082a.89339.89339,0,0,1,.89073.89081Zm0-20.32838a.89326.89326,0,0,1-.89073.89066H58.91783a.89331.89331,0,0,1-.89073-.89066V59.90255a.89341.89341,0,0,1,.89073-.89066H69.082a.89336.89336,0,0,1,.89073.89066Zm20.32838,40.65676a.89326.89326,0,0,1-.89073.89066H79.24621a.89326.89326,0,0,1-.89073-.89066V100.5593a.89326.89326,0,0,1,.89073-.89066H89.4104a.89326.89326,0,0,1,.89073.89066Zm0-20.32838a.89349.89349,0,0,1-.89073.89081H79.24621a.89349.89349,0,0,1-.89073-.89081V80.23108a.89339.89339,0,0,1,.89073-.89081H89.4104a.89339.89339,0,0,1,.89073.89081Zm0-20.32838a.89326.89326,0,0,1-.89073.89066H79.24621a.89326.89326,0,0,1-.89073-.89066V59.90255a.89336.89336,0,0,1,.89073-.89066H89.4104a.89336.89336,0,0,1,.89073.89066Zm3.652-26.08349H34.04682V10.7593H93.9531Z"/><circle class="cls-2" cx="49.25878" cy="27.37135" r="4.59511"/><circle class="cls-2" cx="63.99996" cy="27.37135" r="4.59513"/><circle class="cls-2" cx="78.74114" cy="27.37135" r="4.59511"/></svg>