<?xml version="1.0" encoding="UTF-8"?>
<!DOCTYPE svg PUBLIC "-//W3C//DTD SVG 1.1//EN" "http://www.w3.org/Graphics/SVG/1.1/DTD/svg11.dtd">
<!-- Creator: CorelDRAW 2019 (64 Bit) -->
<svg xmlns="http://www.w3.org/2000/svg" xml:space="preserve" width="449.67mm" height="715.634mm" version="1.1" style="shape-rendering:geometricPrecision; text-rendering:geometricPrecision; image-rendering:optimizeQuality; fill-rule:evenodd; clip-rule:evenodd"
viewBox="0 0 80563.02 128213.1"
 xmlns:xlink="http://www.w3.org/1999/xlink"
 xmlns:xodm="http://www.corel.com/coreldraw/odm/2003"
 data-name="Layer 1">
 <defs>
  <style type="text/css">
   <![CDATA[
    .str0 {stroke:#373435;stroke-width:35.83;stroke-miterlimit:22.9256}
    .fil2 {fill:white}
    .fil0 {fill:#2D3E50;fill-rule:nonzero}
    .fil1 {fill:#2E79BD;fill-rule:nonzero}
   ]]>
  </style>
 </defs>
 <g id="Camada_x0020_1">
  <metadata id="CorelCorpID_0Corel-Layer"/>
  <g id="financeiro.svg">
   <path class="fil0" d="M73599.03 17.97l-66635.17 0c0.07,-0.05 -1.61,-0.05 -1.61,-0.05 -3834.6,0 -6944.27,3109.67 -6944.27,6944.25 0,0 0,1.68 0,1.68l-0.05 44328.98c0,8540.84 337.56,17069.82 1012.52,25587.03l3543.88 44916.15c285.42,3612.03 3301.55,6399.18 6925.85,6399.18l57562.66 0c3624.25,0 6640.45,-2787.14 6925.42,-6399.61l3543.88 -44916.15c673.61,-8510.1 1011.27,-17038.97 1012.95,-25586.6l0 -44328.98c0,0.13 0,-1.56 0,-1.56 0,-3834.59 -3109.72,-6944.32 -6944.32,-6944.32 0,0 -1.68,0 -1.68,0l-0.05 0zm-48004.49 111890.61c-1.36,502.56 -408.63,909.83 -911.25,911.14l-10398.77 0.05c-502.49,-1.36 -909.76,-408.63 -911.19,-911.25l-0.07 -10398.84c1.5,-502.67 408.77,-909.88 911.39,-911.25l10398.57 0.05c502.69,1.31 909.96,408.52 911.39,911.14l-0.07 10398.95zm-911.32 -32107.69c-1.31,502.62 -408.58,909.88 -911.19,911.32l-9487.5 0.07c-502.49,-1.5 -909.76,-408.77 -911.19,-911.39l-0.07 911.39c1.5,-502.81 408.7,-910.01 911.39,-911.44l10398.57 0.05c502.74,1.38 909.96,408.58 911.39,911.26l-911.39 -911.26zm0 -20797.54c-1.36,502.62 -408.63,909.88 -911.25,911.19l-9487.45 0c-502.49,-1.31 -909.76,-408.58 -911.19,-911.19l-0.07 911.19c1.5,-502.62 408.83,-909.83 911.39,-911.26l10398.57 0.07c502.62,1.36 909.96,408.58 911.39,911.12l-911.39 -911.12zm20797.61 41595.14c-1.43,502.54 -408.7,909.83 -911.32,911.14l-9487.45 0.05c-502.67,-1.49 -909.81,-408.65 -911.26,-911.32l-0.05 911.32c1.5,-502.74 408.65,-909.88 911.32,-911.32l10398.77 0.13c502.56,1.31 909.83,408.52 911.26,911.14l-911.26 -911.14zm0 -20797.61c-1.43,502.62 -408.7,909.88 -911.32,911.32l-9487.45 0.07c-502.54,-1.63 -909.81,-408.9 -911.26,-911.44l-0.05 911.44c1.5,-502.69 408.7,-910.01 911.32,-911.44l10398.77 0.05c502.62,1.38 909.83,408.58 911.26,911.26l-911.26 -911.26zm0 -20797.54c-1.43,502.62 -408.7,909.88 -911.32,911.19l-9487.45 0c-502.67,-1.43 -909.81,-408.58 -911.26,-911.26l-0.05 911.26c1.5,-502.62 408.7,-909.83 911.32,-911.26l10398.77 0.07c502.49,1.36 909.83,408.58 911.26,911.12l-911.26 -911.12zm20797.54 41595.14c-1.43,502.54 -408.7,909.83 -911.32,911.14l-9487.45 0.05c-502.54,-1.36 -909.81,-408.65 -911.25,-911.25l0 911.25c1.43,-502.67 408.7,-909.88 911.32,-911.25l10398.7 0.05c502.62,1.31 909.88,408.52 911.33,911.14l-911.33 -911.14zm0 -20797.61c-1.36,502.62 -408.63,909.88 -911.25,911.32l-9487.52 0.07c-502.62,-1.5 -909.88,-408.77 -911.32,-911.39l0.07 911.39c1.43,-502.81 408.63,-910.01 911.32,-911.44l10398.7 0.05c502.69,1.38 909.88,408.58 911.33,911.26l-911.33 -911.26zm0 -20797.54c-1.43,502.62 -408.7,909.88 -911.32,911.19l-9487.45 0c-502.54,-1.31 -909.81,-408.58 -911.25,-911.19l0 911.19c1.36,-502.62 408.7,-909.83 911.25,-911.26l10398.77 0.07c502.56,1.36 909.88,408.58 911.33,911.12l-911.33 -911.12zm3736.32 -26685.49l-60377.66 0 0 -22680.8 61288.92 0 -911.26 22680.8z"/>
   <circle class="fil1" cx="25200.06" cy="26632.51" r="4701.14"/>
   <circle class="fil1" cx="40281.44" cy="26632.51" r="4701.2"/>
   <circle class="fil1" cx="55362.89" cy="26632.51" r="4701.14"/>
  </g>
  <path class="fil2 str0" d="M70014.67 32317.86l-60377.66 0 0 -22680.78 61288.92 0 -911.26 22680.78zm3584.33 -32299.88l-66635.16 0c0.07,-0.07 -1.61,-0.07 -1.61,-0.07 -3834.6,0 -6944.25,3109.67 -6944.25,6944.25 0,0 0,1.68 0,1.68l-0.07 44328.97c0,8540.84 337.54,17069.85 1012.54,25587.04l3543.86 44916.16c285.42,3612.01 3301.53,6399.16 6925.85,6399.16l57562.64 0c3624.29,0 6640.47,-2787.14 6925.44,-6399.61l3543.86 -44916.16c673.62,-8510.08 1011.29,-17038.97 1012.99,-25586.6l0 -44328.97c0,0.13 0,-1.56 0,-1.56 0,-3834.59 -3109.74,-6944.31 -6944.32,-6944.31 0,0 -1.7,0 -1.77,0zm-48915.77 58985.37c502.62,1.38 909.94,408.58 911.37,911.14l-911.37 -911.14zm-11186.89 455.6c-77.83,133.99 -122.6,289.59 -123.08,455.59l0.07 -911.19c0.47,165.99 45.2,321.59 123.01,455.6zm788.29 -455.68l10398.61 0.07c-1.38,502.62 -408.65,909.88 -911.26,911.19l-9487.47 0c-336.53,-0.88 -630.36,-183.84 -788.16,-455.59 157.86,-271.73 451.72,-454.71 788.29,-455.68zm10398.61 20797.61c502.74,1.38 909.94,408.58 911.37,911.26l-911.37 -911.26zm-11186.89 455.6c-77.83,134.05 -122.6,289.7 -123.08,455.78l0.07 -911.39c0.47,165.99 45.2,321.59 123.01,455.6zm788.29 -455.68l10398.61 0.07c-1.33,502.62 -408.59,909.9 -911.21,911.32l-9487.52 0.07c-336.53,-1 -630.36,-184.02 -788.16,-455.78 157.82,-271.77 451.65,-454.71 788.29,-455.68zm0 20797.62l10398.61 0.04c502.67,1.33 909.94,408.52 911.37,911.14l-0.07 10398.98c-1.36,502.53 -408.63,909.81 -911.25,911.1l-10398.79 0.07c-502.49,-1.36 -909.76,-408.65 -911.17,-911.26l-0.07 -10398.8c1.49,-502.71 408.75,-909.9 911.37,-911.26zm31196.2 -20797.55c502.62,1.38 909.81,408.58 911.26,911.26l-911.26 -911.26zm-11186.95 455.59c-77.86,134.07 -122.64,289.72 -123.14,455.8l0.05 -911.46c0.48,166.01 45.24,321.63 123.08,455.66zm788.18 -455.66l10398.77 0.07c-1.42,502.62 -408.7,909.9 -911.32,911.32l-9487.45 0.07c-336.53,-1.07 -630.36,-184.09 -788.18,-455.8 157.84,-271.71 451.61,-454.69 788.18,-455.66zm10398.77 20797.66c502.56,1.33 909.81,408.52 911.26,911.14l-911.26 -911.14zm-11187 455.53c-77.83,134.01 -122.58,289.65 -123.08,455.69l0.05 -911.33c0.48,166.03 45.22,321.63 123.03,455.64zm11187 -42050.66c502.49,1.38 909.81,408.58 911.26,911.14l-911.26 -911.14zm-11187 455.57c-77.83,134.01 -122.58,289.61 -123.08,455.62l0.05 -911.26c0.48,166.03 45.22,321.63 123.03,455.64zm0 0c157.82,-271.71 451.63,-454.67 788.23,-455.64l10398.77 0.07c-1.42,502.62 -408.7,909.88 -911.32,911.19l-9487.45 0c-336.64,-0.97 -630.45,-183.89 -788.23,-455.62zm31984.54 41139.56c502.62,1.33 909.88,408.52 911.33,911.14l-911.33 -911.14zm-11186.98 455.57c-77.83,134.01 -122.56,289.63 -123.05,455.66l0 -911.26c0.48,165.99 45.22,321.59 123.05,455.6zm11186.98 -21253.16c502.69,1.38 909.88,408.58 911.33,911.26l-911.33 -911.26zm-11187 455.68c-77.81,134.03 -122.55,289.67 -123.03,455.71l-0.05 -911.39c0.47,166.03 45.22,321.65 123.08,455.68zm11187 -21253.21c502.56,1.38 909.88,408.58 911.33,911.14l-911.33 -911.14zm-11187 455.57c-77.83,134.01 -122.58,289.61 -123.03,455.62l0 -911.19c0.48,165.99 45.22,321.57 123.03,455.57zm-20009.3 41139.45l10398.77 0.11c-1.42,502.58 -408.7,909.85 -911.32,911.14l-9487.45 0.09c-336.66,-1 -630.47,-183.96 -788.23,-455.69 157.8,-271.75 451.59,-454.67 788.23,-455.64zm20797.61 0.07l10398.7 0.04c-1.42,502.58 -408.68,909.85 -911.3,911.14l-9487.47 0.09c-336.57,-0.93 -630.39,-183.91 -788.22,-455.66 157.82,-271.75 451.66,-454.69 788.29,-455.6zm0 -20797.62l10398.7 0.07c-1.36,502.62 -408.65,909.9 -911.26,911.32l-9487.5 0.07c-336.59,-1 -630.43,-183.98 -788.23,-455.71 157.79,-271.8 451.63,-454.78 788.31,-455.75zm-0.07 -20797.54l10398.77 0.07c-1.42,502.62 -408.68,909.88 -911.3,911.19l-9487.47 0c-336.59,-0.88 -630.43,-183.85 -788.23,-455.62 157.82,-271.71 451.68,-454.67 788.23,-455.64z"/>
  <path class="fil2 str0" d="M25200.06 31333.65c2596.37,0 4701.13,-2104.76 4701.13,-4701.15 0,-2596.39 -2104.76,-4701.11 -4701.13,-4701.11 -2596.37,0 -4701.13,2104.72 -4701.13,4701.11 0,2596.39 2104.76,4701.15 4701.13,4701.15z"/>
  <path class="fil2 str0" d="M35580.25 26632.5c0,2596.39 2104.81,4701.2 4701.2,4701.2 2596.39,0 4701.2,-2104.81 4701.2,-4701.2 0,-2596.39 -2104.81,-4701.18 -4701.2,-4701.18 -2596.39,0 -4701.2,2104.79 -4701.2,4701.18z"/>
  <path class="fil2 str0" d="M55362.88 21931.39c-2596.39,0 -4701.11,2104.72 -4701.11,4701.11 0,2596.39 2104.72,4701.15 4701.11,4701.15 2596.39,0 4701.15,-2104.76 4701.15,-4701.15 0,-2596.39 -2104.76,-4701.11 -4701.15,-4701.11z"/>
 </g>
</svg>
