<?xml version="1.0" encoding="UTF-8"?>
<!DOCTYPE svg PUBLIC "-//W3C//DTD SVG 1.1//EN" "http://www.w3.org/Graphics/SVG/1.1/DTD/svg11.dtd">
<!-- Creator: CorelDRAW 2019 (64 Bit) -->
<svg xmlns="http://www.w3.org/2000/svg" xml:space="preserve" width="491.274mm" height="491.267mm" version="1.1" style="shape-rendering:geometricPrecision; text-rendering:geometricPrecision; image-rendering:optimizeQuality; fill-rule:evenodd; clip-rule:evenodd"
viewBox="0 0 52801.34 52800.58"
 xmlns:xlink="http://www.w3.org/1999/xlink"
 xmlns:xodm="http://www.corel.com/coreldraw/odm/2003">
 <defs>
  <style type="text/css">
   <![CDATA[
    .str0 {stroke:#373435;stroke-width:21.5;stroke-miterlimit:22.9256}
    .fil0 {fill:white}
   ]]>
  </style>
 </defs>
 <g id="Camada_x0020_1">
  <metadata id="CorelCorpID_0Corel-Layer"/>
  <path class="fil0 str0" d="M42575.12 28102.47l-32348.94 0 0 10215.46c0.06,470.05 -381.16,851.27 -851.27,851.3 -470.06,-0.03 -851.27,-381.26 -851.27,-851.34l-0.02 -11066.72 -0.01 -3405.15c0,-1.07 0,-2.14 0.01,-3.2l0 -4.21 -0.01 -3397.73c0.03,-470.08 381.25,-851.3 851.34,-851.3l34051.47 0.03c470.09,-0.03 851.3,381.19 851.3,851.27l0 3405.14 0 3405.15 0 5959.03c0,470.05 -381.22,851.27 -851.3,851.27 -470.08,0 -851.29,-381.23 -851.29,-851.3l0.01 -5107.71zm-8506.01 4256.44l5100.88 0.02c470.08,-0.05 851.3,381.17 851.3,851.25l-0.03 9364.2 1702.58 0 0 -5959.02c0,-470.1 381.22,-851.33 851.29,-851.33l2547.54 0.02c2.11,-0.01 4.21,-0.02 6.32,-0.02 2.12,0 4.22,0.01 6.33,0.02l3398.82 0.03c0.1,-0.05 0.41,-0.05 0.52,-0.05 354.82,0 672.65,220.34 797.15,552.5l2553.88 6810.3c35.34,95.02 53.63,195.94 53.63,297.38 0,0.41 0,1.03 0,1.44l0 2553.86 0 3405.19c0,470.05 -381.23,851.27 -851.3,851.27l-958.62 0c-77.76,302 -195.93,587.8 -348.39,851.29l2158.29 0c470.08,-0.05 851.3,381.17 851.3,851.25 0,470.09 -381.23,851.29 -851.3,851.33l-5107.72 0 -16174.46 0 -13620.6 0 -10215.47 0 -3405.13 0 -2553.88 0c-470.05,-0.03 -851.27,-381.24 -851.27,-851.33 0,-470.08 381.23,-851.3 851.3,-851.3l1702.54 0 0 -39159.21c0.2,-326.61 187.6,-624.36 481.84,-766.13l22984.79 -11066.75c115.12,-55.36 241.63,-84.37 369.44,-84.37 127.82,0 254.34,29.01 369.46,84.39l22984.79 11066.76c294.23,141.73 481.63,439.49 481.84,766.15l-0.02 21282.16c0.02,470.05 -381.2,851.27 -851.27,851.27 -470.08,0 -851.3,-381.23 -851.3,-851.3l0 -20747.55 -22133.48 -10656.43 -22133.48 10656.43 0 38624.58 1702.59 0 0 -9364.12c0,-470.11 381.2,-851.33 851.29,-851.33l5100.9 0.02c2.27,-0.01 4.55,-0.02 6.82,-0.02 2.28,0 4.56,0.01 6.84,0.03l5100.86 0.02c470.11,-0.05 851.32,381.16 851.32,851.25l-0.02 9364.17 9819.87 0.01c-152.45,-263.48 -270.61,-549.28 -348.37,-851.27l-1809.93 0c-470.05,0 -851.27,-381.23 -851.27,-851.3l0 -5959.01c0,-470.1 381.23,-851.32 851.3,-851.32l2553.84 0.01 0 -9364.13c0,-470.11 381.23,-851.34 851.3,-851.34l5100.92 0.02 6.82 -0.02c2.28,0 4.56,0.01 6.84,0.03zm5952.16 -14471.88l-27241.2 0c-470.06,0 -851.27,-381.22 -851.27,-851.29l-0.03 -5107.73c0.03,-470.08 381.25,-851.3 851.33,-851.3l27241.18 0.03c470.08,-0.03 851.3,381.19 851.3,851.27l0 5107.73c0,470.08 -381.23,851.29 -851.3,851.29zm-31497.66 2553.86l0.01 3397.73 -0.01 -3397.73zm3412.02 20430.91c0.21,0 0.43,0 0.64,0l-0.64 0z"/>
 </g>
</svg>
