<?xml version="1.0" encoding="UTF-8"?>
<!DOCTYPE svg PUBLIC "-//W3C//DTD SVG 1.1//EN" "http://www.w3.org/Graphics/SVG/1.1/DTD/svg11.dtd">
<!-- Creator: CorelDRAW 2019 (64 Bit) -->
<svg xmlns="http://www.w3.org/2000/svg" xml:space="preserve" width="451.798mm" height="452.667mm" version="1.1" style="shape-rendering:geometricPrecision; text-rendering:geometricPrecision; image-rendering:optimizeQuality; fill-rule:evenodd; clip-rule:evenodd"
viewBox="0 0 51005.1 51103.15"
 xmlns:xlink="http://www.w3.org/1999/xlink"
 xmlns:xodm="http://www.corel.com/coreldraw/odm/2003">
 <defs>
  <style type="text/css">
   <![CDATA[
    .str0 {stroke:#373435;stroke-width:22.58;stroke-miterlimit:22.9256}
    .fil1 {fill:white}
    .fil0 {fill:black;fill-rule:nonzero}
   ]]>
  </style>
 </defs>
 <g id="Camada_x0020_1">
  <metadata id="CorelCorpID_0Corel-Layer"/>
  <g id="sales.svg">
   <path class="fil0" d="M42751.5 33163.02c-509.67,0 -1019.65,84.78 -1444.21,254.68 169.89,-934.54 339.78,-1869.42 339.78,-2803.96 0,-3993.5 -1444.53,-7987.31 -3993.81,-11046.26l-3908.4 -4673.38c679.55,-509.66 1104.44,-1274.65 1104.44,-2124.41 0,-594.77 -254.99,-1189.54 -594.77,-1614.41l849.76 -849.44c2039.3,-2039.3 2803.96,-4928.37 2124.41,-7647.53 -254.99,-849.77 -849.76,-1529.32 -1784.63,-1784.32 -849.76,-254.99 -1784.31,0 -2464.18,679.55l-169.88 170.21c-339.78,339.78 -849.76,339.78 -1104.44,0l-849.76 -934.86c-509.99,-509.67 -1189.54,-849.76 -1954.51,-764.66 -679.55,85.11 -1359.43,424.89 -1784.32,1019.65l-254.99 339.78c-169.88,169.88 -424.87,340.09 -594.77,340.09 -254.67,0 -424.87,-85.1 -594.77,-254.99 -679.87,-679.87 -1529.31,-849.76 -2464.18,-679.87 -849.76,254.99 -1529.31,934.86 -1784.31,1784.31 -679.87,2719.18 169.89,5693.35 2124.41,7647.54l424.56 424.87c-594.77,594.77 -1019.65,1274.65 -1019.65,2124.08 0,849.76 424.89,1614.75 1104.77,2124.41l-679.88 849.76c-509.67,-1784.31 -1444.53,-3398.73 -2803.96,-4758.47 -4333.59,-4333.59 -11300.94,-4333.59 -15634.53,0 -4333.6,4333.6 -4333.6,11301.27 0,15634.85 2124.08,2124.08 5013.14,3228.85 7817.1,3228.85 1189.86,0 2379.4,-169.89 3483.84,-594.78 0,509.67 -84.78,934.56 -84.78,1444.54 0,594.77 84.78,1104.43 169.88,1699.19l-3568.94 0 0 -849.76c0,-509.66 -339.78,-849.43 -849.44,-849.43l-11046.26 0c-509.99,0 -849.76,339.78 -849.76,849.43l0 18693.81c0,509.67 339.78,849.76 849.76,849.76l11046.26 0c509.67,0 849.44,-340.09 849.44,-849.76l0 -849.76 4418.7 0c509.67,0 849.76,-339.78 849.76,-849.76l0 -849.76 15124.87 0c1529.31,0 2888.74,-594.77 3993.5,-1529.31l7477.34 -6882.57c1359.75,-1274.64 1614.41,-3399.04 424.87,-4758.47 -509.66,-849.76 -1359.42,-1274.65 -2294.29,-1359.43zm-35942.44 14445c-1444.53,0 -2549.28,-1104.75 -2549.28,-2549.29 0,-1444.53 1104.75,-2548.96 2549.28,-2548.96 1444.54,0 2548.97,1104.43 2548.97,2548.96 0,1444.54 -1104.43,2549.29 -2548.97,2549.29zm18693.49 -35687.76l6797.77 0c509.67,0 849.76,339.78 849.76,849.43 0,509.99 -340.09,849.76 -849.76,849.76l-6797.77 0c-509.99,0 -849.76,-339.78 -849.76,-849.76 0,-509.66 339.78,-849.43 849.76,-849.43zm3398.73 14444.99c1614.41,0 2974.17,1359.43 2974.17,2973.84 0,1359.76 -934.87,2464.18 -2124.41,2804.29l0 1019.64c0,509.67 -339.78,849.44 -849.76,849.44 -509.67,0 -849.44,-339.78 -849.44,-849.44l0 -1019.64c-1189.86,-340.1 -2124.41,-1529.64 -2124.41,-2804.29 0,-509.66 339.78,-849.76 849.76,-849.76 509.67,0 849.77,340.1 849.77,849.76 0,679.88 594.77,1274.65 1274.32,1274.65 679.87,0 1274.64,-594.77 1274.64,-1274.65 0,-679.55 -594.77,-1274.32 -1274.64,-1274.32 -1614.42,0 -2973.85,-1359.75 -2973.85,-2974.17 0,-1359.42 934.54,-2464.17 2124.41,-2803.95l0 -1019.65c0,-509.99 339.78,-849.76 849.44,-849.76 509.99,0 849.76,339.78 849.76,849.76l0 1019.65c1189.54,339.78 2124.41,1529.31 2124.41,2803.95 0,509.99 -340.1,849.77 -849.77,849.77 -509.99,0 -849.76,-339.79 -849.76,-849.77 0,-679.87 -594.77,-1274.64 -1274.64,-1274.64 -679.55,0 -1274.32,594.77 -1274.32,1274.64 0,679.88 594.77,1274.65 1274.32,1274.65zm-12575.59 8496.98l0 11896.03 0 849.76 -3568.94 0 0 -13595.56 3568.94 0 0 849.76zm-10196.5 -9516.63c-3653.72,-3653.72 -3653.72,-9601.73 0,-13255.45 1784.31,-1784.31 4248.49,-2719.18 6627.56,-2719.18 2379.4,0 4758.47,934.87 6627.89,2719.18 3653.72,3653.72 3653.72,9601.73 0,13255.45 -3653.72,3653.72 -9601.73,3653.72 -13255.45,0zm37472.07 12575.59l-7477.32 6882.56c-764.66,679.88 -1784.32,1104.77 -2889.07,1104.77l-15209.65 0 0 -10196.51 3398.73 0 8327.1 1444.53c934.86,169.89 1529.63,1019.65 1359.75,2039.31l0 85.1c-254.99,849.44 -1019.65,1359.43 -1954.51,1189.54l-5778.13 -1019.64c-424.89,-85.11 -934.54,254.67 -1019.65,679.55 -84.78,424.87 254.99,934.86 679.88,1019.64l5778.13 1019.65c169.88,0 424.87,85.11 594.77,85.11 1274.64,0 2379.07,-679.88 2973.84,-1784.32l1954.51 169.89c679.55,84.78 1444.54,-169.89 1954.2,-679.88l5013.47 -4588.27c339.78,-340.09 764.66,-509.99 1274.32,-424.87 509.99,0 934.87,254.99 1189.55,594.77 595.08,679.87 509.99,1699.52 -169.89,2379.07z"/>
   <path class="fil0" d="M14541.39 20502.34c-1019.65,1019.65 -1019.65,2634.08 0,3568.62 509.66,509.99 1189.54,764.65 1784.31,764.65 679.88,0 1274.65,-254.67 1784.31,-764.65 1019.65,-1019.65 1019.65,-2634.08 0,-3568.62 -934.54,-934.86 -2548.97,-934.86 -3568.61,0zm2464.18 2379.08c-340.1,339.78 -849.76,339.78 -1189.86,0 -339.78,-339.78 -339.78,-849.76 0,-1189.55 170.21,-169.88 424.89,-254.99 595.1,-254.99 254.67,0 424.56,85.11 594.77,254.99 254.67,339.79 254.67,934.56 0,1189.55z"/>
   <path class="fil0" d="M18195.11 13279.68c-340.1,-339.78 -849.76,-339.78 -1189.54,0l-9686.84 9601.74c-339.78,339.78 -339.78,849.76 0,1189.54 169.88,169.88 424.87,254.99 594.77,254.99 169.89,0 424.89,-85.11 594.77,-254.99l9601.73 -9601.73c424.89,-254.99 424.89,-849.77 85.11,-1189.55z"/>
   <path class="fil0" d="M9188.15 17698.06c679.87,0 1274.64,-254.68 1784.31,-764.66 1019.65,-1019.64 1019.65,-2634.07 0,-3568.61 -1019.65,-1019.65 -2634.07,-1019.65 -3568.62,0 -1019.64,1019.65 -1019.64,2634.07 0,3568.61 424.89,509.99 1104.44,764.66 1784.32,764.66zm-679.88 -3143.74c169.89,-169.88 424.89,-254.99 594.77,-254.99 254.99,0 424.89,85.11 594.77,254.99 340.1,339.78 340.1,849.76 0,1189.54 -339.78,339.78 -849.43,339.78 -1189.54,0 -254.67,-339.78 -254.67,-934.86 0,-1189.54z"/>
   <path class="fil0" d="M50908.71 11325.49c85.11,-340.1 0,-679.88 -254.68,-934.87l-5948.01 -5098.25c-339.78,-254.99 -764.65,-254.99 -1104.75,0l-5948.01 5098.25c-254.68,254.99 -339.78,594.77 -254.68,934.87 84.78,339.78 424.89,594.77 764.66,594.77l2548.97 0 0 7647.22c0,509.99 340.09,849.76 849.76,849.76l5098.25 0c509.99,0 849.76,-339.78 849.76,-849.76l0 -7647.22 2549.28 0c424.89,0 764.66,-254.99 849.44,-594.77z"/>
   <path class="fil0" d="M46745.31 22116.76c-509.99,0 -849.76,339.78 -849.76,849.44l0 8497.29c0,509.67 339.78,849.76 849.76,849.76 509.67,0 849.77,-340.09 849.77,-849.76l0 -8497.29c0,-509.67 -340.1,-849.44 -849.77,-849.44z"/>
   <path class="fil0" d="M50144.04 28064.77c-509.66,0 -849.76,339.78 -849.76,849.44l0 10196.5c0,509.99 340.1,849.76 849.76,849.76 509.99,0 849.77,-339.78 849.77,-849.76l0 -10196.5c0,-509.67 -339.79,-849.44 -849.77,-849.44z"/>
   <path class="fil0" d="M44196.03 25515.49l0 -2549.28c0,-509.67 -339.78,-849.44 -849.43,-849.44 -510,0 -849.77,339.78 -849.77,849.44l0 2549.28c0,509.99 339.78,849.76 849.77,849.76 509.66,0 849.43,-339.78 849.43,-849.76z"/>
  </g>
  <path class="fil1 str0" d="M41647.06 30613.75c0,-3993.51 -1444.52,-7987.31 -3993.82,-11046.3l-3908.41 -4673.35c679.57,-509.65 1104.46,-1274.65 1104.46,-2124.42 0,-594.75 -254.99,-1189.53 -594.75,-1614.41l849.74 -849.44c2039.3,-2039.3 2803.95,-4928.37 2124.42,-7647.54 -255.02,-849.74 -849.76,-1529.29 -1784.63,-1784.28 -849.77,-254.98 -1784.31,0 -2464.18,679.55l-169.89 170.2c-339.79,339.79 -849.77,339.79 -1104.46,0l-849.74 -934.87c-509.99,-509.65 -1189.54,-849.76 -1954.53,-764.64 -679.55,85.1 -1359.43,424.89 -1784.32,1019.63l-254.99 339.79c-169.89,169.89 -424.87,340.09 -594.75,340.09 -254.67,0 -424.89,-85.1 -594.78,-254.99 -679.88,-679.88 -1529.31,-849.74 -2464.18,-679.88 -849.77,254.99 -1529.29,934.87 -1784.28,1784.32 -679.9,2719.17 169.87,5693.33 2124.4,7647.57l424.54 424.85c-594.76,594.78 -1019.64,1274.66 -1019.64,2124.07 0,849.77 424.89,1614.77 1104.77,2124.42l-679.88 849.77c-509.66,-1784.31 -1444.52,-3398.72 -2803.95,-4758.47 -4333.59,-4333.59 -11300.93,-4333.59 -15634.54,0 -4333.59,4333.59 -4333.59,11301.23 0,15634.84 2124.09,2124.07 5013.14,3228.83 7817.11,3228.83 1189.85,0 2379.38,-169.87 3483.84,-594.76 0,509.66 -84.79,934.54 -84.79,1444.53 0,594.77 84.79,1104.43 169.87,1699.18l-3568.92 0 0 -849.77c0,-509.66 -339.79,-849.41 -849.44,-849.41l-11046.26 0c-510.01,0 -849.77,339.75 -849.77,849.41l0 18693.83c0,509.66 339.76,849.77 849.77,849.77l11046.26 0c509.66,0 849.44,-340.11 849.44,-849.77l0 -849.74 4418.69 0c509.68,0 849.76,-339.81 849.76,-849.77l0 -849.77 15124.87 0c1529.31,0 2888.74,-594.77 3993.5,-1529.34l7477.35 -6882.52c1359.72,-1274.65 1614.41,-3399.04 424.89,-4758.5 -509.7,-849.77 -1359.45,-1274.66 -2294.29,-1359.42 -509.7,0 -1019.67,84.76 -1444.25,254.69 169.89,-934.57 339.79,-1869.46 339.79,-2803.97zm-11896.03 -9346.75l0 1019.63c1189.56,339.81 2124.4,1529.35 2124.4,2803.97 0,510.01 -340.06,849.77 -849.76,849.77 -509.96,0 -849.75,-339.76 -849.75,-849.77 0,-679.88 -594.78,-1274.62 -1274.65,-1274.62 -679.55,0 -1274.31,594.75 -1274.31,1274.62 0,679.88 594.76,1274.66 1274.31,1274.66 1614.43,0 2974.16,1359.42 2974.16,2973.83 0,1359.76 -934.84,2464.18 -2124.4,2804.28l0 1019.67c0,509.65 -339.79,849.43 -849.76,849.43 -509.66,0 -849.42,-339.79 -849.42,-849.43l0 -1019.67c-1189.89,-340.09 -2124.42,-1529.62 -2124.42,-2804.28 0,-509.66 339.79,-849.77 849.77,-849.77 509.65,0 849.76,340.11 849.76,849.77 0,679.88 594.76,1274.66 1274.31,1274.66 679.87,0 1274.65,-594.78 1274.65,-1274.66 0,-679.55 -594.78,-1274.3 -1274.65,-1274.3 -1614.42,0 -2973.84,-1359.78 -2973.84,-2974.19 0,-1359.4 934.53,-2464.16 2124.42,-2803.97l0 -1019.63c0,-509.99 339.76,-849.77 849.42,-849.77 509.97,0 849.76,339.79 849.76,849.77zm-13425.35 13595.24l0 11896.01 0 849.76 -3568.92 0 0 -13595.55 3568.92 0 0 849.77zm-9516.62 7647.54c1444.52,0 2548.98,1104.4 2548.98,2548.94 0,1444.53 -1104.46,2549.28 -2548.98,2549.28 -1444.54,0 -2549.31,-1104.75 -2549.31,-2549.28 0,-1444.54 1104.77,-2548.94 2549.31,-2548.94zm25491.25 -28890.33l-6797.77 0c-509.99,0 -849.74,-339.76 -849.74,-849.77 0,-509.66 339.75,-849.41 849.74,-849.41l6797.77 0c509.68,0 849.77,339.75 849.77,849.41 0,510.01 -340.09,849.77 -849.77,849.77zm2039.32 27020.89c679.55,84.79 1444.53,-169.86 1954.18,-679.87l5013.47 -4588.29c339.79,-340.06 764.67,-509.95 1274.35,-424.85 509.95,0 934.84,254.99 1189.53,594.78 595.08,679.84 509.96,1699.51 -169.89,2379.05l-7477.31 6882.58c-764.67,679.84 -1784.32,1104.73 -2889.07,1104.73l-15209.66 0 0 -10196.47 3398.75 0 8327.06 1444.52c934.87,169.89 1529.65,1019.67 1359.76,2039.3l0 85.12c-254.99,849.42 -1019.67,1359.4 -1954.54,1189.54l-5778.11 -1019.67c-424.89,-85.1 -934.54,254.67 -1019.67,679.55 -84.77,424.87 255.02,934.86 679.9,1019.63l5778.12 1019.67c169.89,0 424.89,85.1 594.75,85.1 1274.66,0 2379.12,-679.88 2973.86,-1784.28l1954.53 169.86zm-14954.96 -28550.18c3653.71,3653.71 3653.71,9601.71 0,13255.45 -3653.74,3653.71 -9601.74,3653.71 -13255.49,0 -3653.71,-3653.74 -3653.71,-9601.74 0,-13255.45 1784.32,-1784.34 4248.5,-2719.18 6627.59,-2719.18 2379.38,0 4758.44,934.84 6627.9,2719.18z"/>
  <path class="fil1 str0" d="M7318.74 22881.44l9686.82 -9601.74c339.79,-339.79 849.47,-339.79 1189.53,0 339.81,339.76 339.81,934.54 -85.08,1189.54l-9601.74 9601.74c-169.89,169.89 -424.87,254.98 -594.77,254.98 -169.87,0 -424.86,-85.09 -594.76,-254.98 -339.81,-339.76 -339.81,-849.77 0,-1189.54zm7222.66 -2379.11c1019.63,-934.87 2634.05,-934.87 3568.61,0 1019.64,934.53 1019.64,2549 0,3568.64 -509.68,509.97 -1104.45,764.64 -1784.33,764.64 -594.76,0 -1274.62,-254.67 -1784.28,-764.64 -1019.67,-934.57 -1019.67,-2548.99 0,-3568.64zm4843.27 4843.29c3653.71,-3653.74 3653.71,-9601.74 0,-13255.45 -1869.46,-1784.34 -4248.52,-2719.18 -6627.9,-2719.18 -2379.08,0 -4843.27,934.84 -6627.59,2719.18 -3653.71,3653.71 -3653.71,9601.71 0,13255.45 3653.74,3653.71 9601.74,3653.71 13255.49,0zm-8412.22 -8412.21c-509.65,509.97 -1104.43,764.64 -1784.31,764.64 -679.88,0 -1359.45,-254.67 -1784.33,-764.64 -1019.64,-934.54 -1019.64,-2548.96 0,-3568.62 934.56,-1019.63 2548.98,-1019.63 3568.63,0 1019.64,934.54 1019.64,2548.96 0,3568.62z"/>
  <path class="fil1 str0" d="M17005.56 13279.69l-9686.82 9601.74c-339.81,339.76 -339.81,849.77 0,1189.54 169.89,169.89 424.89,254.98 594.76,254.98 169.89,0 424.87,-85.09 594.77,-254.98l9601.74 -9601.74c424.89,-254.99 424.89,-849.77 85.08,-1189.54 -340.06,-339.79 -849.74,-339.79 -1189.53,0z"/>
  <path class="fil1 str0" d="M18110.01 20502.33c-934.56,-934.87 -2548.98,-934.87 -3568.61,0 -1019.67,1019.65 -1019.67,2634.08 0,3568.64 509.66,509.97 1189.53,764.64 1784.28,764.64 679.88,0 1274.65,-254.67 1784.33,-764.64 1019.64,-1019.64 1019.64,-2634.11 0,-3568.64zm-1104.45 1189.55c254.69,339.79 254.69,934.57 0,1189.56 -340.09,339.76 -849.75,339.76 -1189.84,0 -339.81,-339.81 -339.81,-849.77 0,-1189.56 170.2,-169.89 424.89,-255.02 595.08,-255.02 254.67,0 424.56,85.12 594.76,255.02z"/>
  <path class="fil1 str0" d="M10972.45 16933.41c1019.64,-1019.67 1019.64,-2634.08 0,-3568.62 -1019.65,-1019.63 -2634.08,-1019.63 -3568.63,0 -1019.64,1019.67 -1019.64,2634.08 0,3568.62 424.87,509.97 1104.45,764.64 1784.33,764.64 679.88,0 1274.66,-254.67 1784.31,-764.64zm-1869.4 -2634.08c254.99,0 424.86,85.12 594.76,254.98 340.11,339.79 340.11,849.77 0,1189.56 -339.76,339.76 -849.42,339.76 -1189.54,0 -254.69,-339.79 -254.69,-934.89 0,-1189.56 169.89,-169.86 424.89,-254.98 594.78,-254.98z"/>
  <path class="fil1 str0" d="M40712.2 11920.27l0 7647.18c0,510.01 340.08,849.77 849.74,849.77l5098.28 0c509.99,0 849.75,-339.76 849.75,-849.77l0 -7647.18 2549.31 0c424.89,0 764.64,-254.99 849.41,-594.8 85.12,-340.07 0,-679.86 -254.67,-934.85l-5948.02 -5098.26c-339.76,-254.98 -764.65,-254.98 -1104.74,0l-5948.02 5098.26c-254.67,254.99 -339.76,594.78 -254.67,934.85 84.79,339.81 424.89,594.8 764.67,594.8l2548.96 0z"/>
  <path class="fil1 str0" d="M45895.55 22966.21l0 8497.28c0,509.66 339.79,849.77 849.77,849.77 509.66,0 849.77,-340.11 849.77,-849.77l0 -8497.28c0,-509.66 -340.11,-849.44 -849.77,-849.44 -509.99,0 -849.77,339.79 -849.77,849.44z"/>
  <path class="fil1 str0" d="M49294.28 28914.21l0 10196.52c0,509.99 340.11,849.75 849.77,849.75 509.97,0 849.76,-339.76 849.76,-849.75l0 -10196.52c0,-509.65 -339.79,-849.41 -849.76,-849.41 -509.66,0 -849.77,339.76 -849.77,849.41z"/>
  <path class="fil1 str0" d="M43346.58 26365.26c509.66,0 849.47,-339.76 849.47,-849.77l0 -2549.28c0,-509.66 -339.81,-849.44 -849.47,-849.44 -509.97,0 -849.74,339.79 -849.74,849.44l0 2549.28c0,510.01 339.76,849.77 849.74,849.77z"/>
 </g>
</svg>
