<?xml version="1.0" encoding="UTF-8"?>
<!DOCTYPE svg PUBLIC "-//W3C//DTD SVG 1.1//EN" "http://www.w3.org/Graphics/SVG/1.1/DTD/svg11.dtd">
<!-- Creator: CorelDRAW 2019 (64 Bit) -->
<svg xmlns="http://www.w3.org/2000/svg" xml:space="preserve" width="210mm" height="297mm" version="1.1" style="shape-rendering:geometricPrecision; text-rendering:geometricPrecision; image-rendering:optimizeQuality; fill-rule:evenodd; clip-rule:evenodd"
viewBox="0 0 21000 29700"
 xmlns:xlink="http://www.w3.org/1999/xlink"
 xmlns:xodm="http://www.corel.com/coreldraw/odm/2003">
 <defs>
  <style type="text/css">
   <![CDATA[
    .str0 {stroke:#373435;stroke-width:20;stroke-miterlimit:22.9256}
    .fil0 {fill:#6B809B}
    .fil1 {fill:#707070}
    .fil2 {fill:white}
   ]]>
  </style>
 </defs>
 <g id="Camada_x0020_1">
  <metadata id="CorelCorpID_0Corel-Layer"/>
  <path class="fil0 str0" d="M10558.48 6317.91c1413.18,0 2569.96,1156.27 2569.96,2569.93 0,1413.66 -1156.3,2569.95 -2569.96,2569.95 -1413.66,0 -2569.93,-1156.29 -2569.93,-2569.95 0,-1413.66 1156.27,-2569.93 2569.93,-2569.93zm0 7709.31c2839.46,0 5139.38,-2299.92 5139.38,-5139.38 0,-2839.43 -2299.92,-5139.38 -5139.38,-5139.38l0 -0.48c-2839.43,0 -5139.38,2299.92 -5139.38,5139.86 0,2839.96 2299.95,5139.38 5139.38,5139.38z"/>
  <path class="fil0 str0" d="M20837.75 21736.56c0,-3417.86 -6848.31,-5139.38 -10279.27,-5139.38 -3430.45,0 -10279.24,1721.52 -10279.24,5139.38l0 2569.93 20558.51 0 0 -2569.93zm-10279.27 -2569.96c3469.32,0 7452.43,1657.45 7709.34,2569.96l-15418.65 0c295.75,-925.13 4253.12,-2569.96 7709.31,-2569.96z"/>
  <path class="fil1 str0" d="M5419.1 8887.84c0,-2839.94 2299.95,-5139.86 5139.38,-5139.86l0 0.48c2839.46,0 5139.38,2299.95 5139.38,5139.38 0,2839.46 -2299.92,5139.38 -5139.38,5139.38 -2839.43,0 -5139.38,-2299.42 -5139.38,-5139.38zm5139.38 7709.34c3430.96,0 10279.27,1721.52 10279.27,5139.38l0 2569.93 -20558.51 0 0 -2569.93c0,-3417.86 6848.79,-5139.38 10279.24,-5139.38z"/>
  <path class="fil2 str0" d="M10558.48 3747.98c-2839.43,0 -5139.38,2299.92 -5139.38,5139.86 0,2839.96 2299.95,5139.38 5139.38,5139.38 2839.46,0 5139.38,-2299.92 5139.38,-5139.38 0,-2839.43 -2299.92,-5139.38 -5139.38,-5139.38l0 -0.48z"/>
  <path class="fil2 str0" d="M20837.75 21736.56c0,-3417.86 -6848.31,-5139.38 -10279.27,-5139.38 -3430.45,0 -10279.24,1721.52 -10279.24,5139.38l0 2569.93 20558.51 0 0 -2569.93z"/>
 </g>
</svg>
